<svg xmlns="http://www.w3.org/2000/svg" xmlns:xlink="http://www.w3.org/1999/xlink" width="500" zoomAndPan="magnify" viewBox="0 0 375 374.999991" height="500" preserveAspectRatio="xMidYMid meet" version="1.0"><defs><clipPath id="dbcaedc0fd"><path d="M 80 53 L 346 53 L 346 368.042969 L 80 368.042969 Z M 80 53 " clip-rule="nonzero"/></clipPath></defs><g clip-path="url(#dbcaedc0fd)"><path fill="#a6a6a6" d="M 336.21875 118.324219 C 329.417969 99.570312 319.492188 82.933594 307.261719 68.753906 L 322.816406 53.484375 L 143.496094 106.550781 L 261.363281 153.800781 C 271.980469 158.058594 280.816406 165.824219 286.402344 175.800781 C 299.183594 198.628906 292.21875 227.453125 270.421875 241.925781 L 80.484375 368.042969 L 175.023438 329.726562 C 199.847656 331.707031 225.535156 327.851562 250.097656 317.28125 C 326.523438 284.378906 364.578125 196.546875 336.21875 118.324219 " fill-opacity="1" fill-rule="nonzero"/></g><path fill="#ff1616" d="M 79.472656 124.285156 C 73.175781 97.808594 89.582031 71.253906 116.074219 65.039062 L 259.574219 31.359375 C 218.347656 10.261719 168.15625 7.285156 122.207031 28.058594 C 47.40625 61.875 10.808594 148.652344 38.785156 225.828125 C 45.144531 243.359375 54.238281 259.039062 65.394531 272.597656 L 206.941406 196.886719 L 109.382812 158.6875 C 94.375 152.8125 83.203125 139.960938 79.472656 124.285156 " fill-opacity="1" fill-rule="nonzero"/></svg>